<mxfile host="app.diagrams.net" agent="Mozilla/5.0 (Windows NT 10.0; Win64; x64) AppleWebKit/537.36 (KHTML, like Gecko) Chrome/130.0.0.0 Safari/537.36 Edg/130.0.0.0" version="24.8.6" pages="2">
  <diagram name="第 1 页" id="cuDvIR6GlrQm0H4oQxtx">
    <mxGraphModel dx="2122" dy="1324" grid="0" gridSize="10" guides="1" tooltips="1" connect="1" arrows="1" fold="1" page="0" pageScale="1" pageWidth="827" pageHeight="1169" background="none" math="0" shadow="0">
      <root>
        <mxCell id="0" />
        <mxCell id="1" parent="0" />
        <mxCell id="pgN2BodhG1lexUuljltz-23" value="&lt;div&gt;&lt;br&gt;&lt;/div&gt;&lt;div&gt;&lt;br&gt;&lt;/div&gt;&lt;div&gt;&lt;br&gt;&lt;/div&gt;&lt;div&gt;&lt;br&gt;&lt;/div&gt;&lt;div&gt;&lt;br&gt;&lt;/div&gt;&lt;div&gt;&lt;br&gt;&lt;/div&gt;&lt;div&gt;&lt;br&gt;&lt;/div&gt;&lt;div&gt;&lt;br&gt;&lt;/div&gt;&lt;div&gt;&lt;br&gt;&lt;/div&gt;&lt;div&gt;&lt;br&gt;&lt;/div&gt;&lt;div&gt;&lt;br&gt;&lt;/div&gt;&lt;div&gt;&lt;br&gt;&lt;/div&gt;&lt;div&gt;&lt;br&gt;&lt;/div&gt;&lt;div&gt;&lt;br&gt;&lt;/div&gt;&lt;div&gt;&lt;br&gt;&lt;/div&gt;&lt;div&gt;&lt;br&gt;&lt;/div&gt;&lt;div&gt;&lt;br&gt;&lt;/div&gt;&lt;div&gt;&lt;br&gt;&lt;/div&gt;&lt;div&gt;&lt;br&gt;&lt;/div&gt;&lt;div&gt;&lt;br&gt;&lt;/div&gt;计算开源IT基础设施" style="rounded=0;whiteSpace=wrap;html=1;sketch=1;curveFitting=1;jiggle=2;fontFamily=Comic Sans MS;" parent="1" vertex="1">
          <mxGeometry x="-29" y="203" width="700" height="83" as="geometry" />
        </mxCell>
        <mxCell id="pgN2BodhG1lexUuljltz-22" value="搜索中心" style="rounded=0;whiteSpace=wrap;html=1;sketch=1;hachureGap=4;jiggle=2;curveFitting=1;fontFamily=Architects Daughter;fontSource=https%3A%2F%2Ffonts.googleapis.com%2Fcss%3Ffamily%3DArchitects%2BDaughter;" parent="1" vertex="1">
          <mxGeometry x="544" y="211" width="115" height="21" as="geometry" />
        </mxCell>
        <mxCell id="evkO2dSw4EaUhVPGRM0e-8" value="" style="rounded=0;whiteSpace=wrap;html=1;sketch=1;curveFitting=1;jiggle=2;fontFamily=Comic Sans MS;" parent="1" vertex="1">
          <mxGeometry x="-134" y="372" width="861" height="66" as="geometry" />
        </mxCell>
        <mxCell id="evkO2dSw4EaUhVPGRM0e-10" value="已有业务" style="rounded=0;whiteSpace=wrap;html=1;sketch=1;curveFitting=1;jiggle=2;fontFamily=Comic Sans MS;" parent="1" vertex="1">
          <mxGeometry x="761" y="372" width="75" height="25" as="geometry" />
        </mxCell>
        <mxCell id="evkO2dSw4EaUhVPGRM0e-11" value="新增业务" style="rounded=0;whiteSpace=wrap;html=1;fillColor=#f8cecc;strokeColor=#b85450;sketch=1;curveFitting=1;jiggle=2;fontFamily=Comic Sans MS;" parent="1" vertex="1">
          <mxGeometry x="761" y="413" width="75" height="25" as="geometry" />
        </mxCell>
        <mxCell id="evkO2dSw4EaUhVPGRM0e-14" value="openGauss" style="rounded=0;whiteSpace=wrap;html=1;sketch=1;curveFitting=1;jiggle=2;fontFamily=Comic Sans MS;" parent="1" vertex="1">
          <mxGeometry x="-8" y="11" width="75" height="25" as="geometry" />
        </mxCell>
        <mxCell id="evkO2dSw4EaUhVPGRM0e-15" value="openEuler" style="rounded=0;whiteSpace=wrap;html=1;sketch=1;curveFitting=1;jiggle=2;fontFamily=Comic Sans MS;" parent="1" vertex="1">
          <mxGeometry x="-116" y="11" width="75" height="25" as="geometry" />
        </mxCell>
        <mxCell id="evkO2dSw4EaUhVPGRM0e-16" value="MindSpore" style="rounded=0;whiteSpace=wrap;html=1;sketch=1;curveFitting=1;jiggle=2;fontFamily=Comic Sans MS;" parent="1" vertex="1">
          <mxGeometry x="100" y="11" width="75" height="25" as="geometry" />
        </mxCell>
        <mxCell id="evkO2dSw4EaUhVPGRM0e-17" value="openUBMC" style="rounded=0;whiteSpace=wrap;html=1;sketch=1;curveFitting=1;jiggle=2;fillColor=#f8cecc;strokeColor=#b85450;fontFamily=Comic Sans MS;" parent="1" vertex="1">
          <mxGeometry x="208" y="11" width="75" height="25" as="geometry" />
        </mxCell>
        <mxCell id="evkO2dSw4EaUhVPGRM0e-18" value="openMind" style="rounded=0;whiteSpace=wrap;html=1;sketch=1;hachureGap=4;jiggle=2;curveFitting=1;fontFamily=Architects Daughter;fontSource=https%3A%2F%2Ffonts.googleapis.com%2Fcss%3Ffamily%3DArchitects%2BDaughter;" parent="1" vertex="1">
          <mxGeometry x="316" y="13" width="75" height="21" as="geometry" />
        </mxCell>
        <mxCell id="evkO2dSw4EaUhVPGRM0e-21" value="" style="endArrow=none;html=1;rounded=0;sketch=1;hachureGap=4;jiggle=2;curveFitting=1;fontFamily=Architects Daughter;fontSource=https%3A%2F%2Ffonts.googleapis.com%2Fcss%3Ffamily%3DArchitects%2BDaughter;" parent="1" edge="1">
          <mxGeometry width="50" height="50" relative="1" as="geometry">
            <mxPoint x="441" y="166" as="sourcePoint" />
            <mxPoint x="441" y="-86" as="targetPoint" />
          </mxGeometry>
        </mxCell>
        <mxCell id="evkO2dSw4EaUhVPGRM0e-27" value="昇腾CI" style="rounded=0;whiteSpace=wrap;html=1;sketch=1;curveFitting=1;jiggle=2;fontFamily=Comic Sans MS;fillColor=#f8cecc;strokeColor=#b85450;" parent="1" vertex="1">
          <mxGeometry x="512" y="53" width="75" height="25" as="geometry" />
        </mxCell>
        <mxCell id="evkO2dSw4EaUhVPGRM0e-28" value="CI/CD" style="rounded=0;whiteSpace=wrap;html=1;sketch=1;hachureGap=4;jiggle=2;curveFitting=1;fontFamily=Architects Daughter;fontSource=https%3A%2F%2Ffonts.googleapis.com%2Fcss%3Ffamily%3DArchitects%2BDaughter;" parent="1" vertex="1">
          <mxGeometry x="-8" y="257" width="108" height="21" as="geometry" />
        </mxCell>
        <mxCell id="pgN2BodhG1lexUuljltz-2" value="PyTorch" style="rounded=0;whiteSpace=wrap;html=1;sketch=1;hachureGap=4;jiggle=2;curveFitting=1;fontFamily=Architects Daughter;fontSource=https%3A%2F%2Ffonts.googleapis.com%2Fcss%3Ffamily%3DArchitects%2BDaughter;" parent="1" vertex="1">
          <mxGeometry x="512" y="-55" width="75" height="21" as="geometry" />
        </mxCell>
        <mxCell id="pgN2BodhG1lexUuljltz-3" value="DeepSpeed" style="rounded=0;whiteSpace=wrap;html=1;sketch=1;hachureGap=4;jiggle=2;curveFitting=1;fontFamily=Architects Daughter;fontSource=https%3A%2F%2Ffonts.googleapis.com%2Fcss%3Ffamily%3DArchitects%2BDaughter;" parent="1" vertex="1">
          <mxGeometry x="602" y="-55" width="75" height="21" as="geometry" />
        </mxCell>
        <mxCell id="pgN2BodhG1lexUuljltz-4" value="llama.cpp" style="rounded=0;whiteSpace=wrap;html=1;sketch=1;hachureGap=4;jiggle=2;curveFitting=1;fontFamily=Architects Daughter;fontSource=https%3A%2F%2Ffonts.googleapis.com%2Fcss%3Ffamily%3DArchitects%2BDaughter;" parent="1" vertex="1">
          <mxGeometry x="512" y="-24" width="75" height="21" as="geometry" />
        </mxCell>
        <mxCell id="pgN2BodhG1lexUuljltz-6" value="vllm" style="rounded=0;whiteSpace=wrap;html=1;sketch=1;hachureGap=4;jiggle=2;curveFitting=1;fontFamily=Architects Daughter;fontSource=https%3A%2F%2Ffonts.googleapis.com%2Fcss%3Ffamily%3DArchitects%2BDaughter;" parent="1" vertex="1">
          <mxGeometry x="512" y="10" width="75" height="21" as="geometry" />
        </mxCell>
        <mxCell id="pgN2BodhG1lexUuljltz-9" value="sd-webui" style="rounded=0;whiteSpace=wrap;html=1;sketch=1;hachureGap=4;jiggle=2;curveFitting=1;fontFamily=Architects Daughter;fontSource=https%3A%2F%2Ffonts.googleapis.com%2Fcss%3Ffamily%3DArchitects%2BDaughter;" parent="1" vertex="1">
          <mxGeometry x="605" y="-22" width="75" height="21" as="geometry" />
        </mxCell>
        <mxCell id="pgN2BodhG1lexUuljltz-11" value="主导开源" style="rounded=0;whiteSpace=wrap;html=1;sketch=1;curveFitting=1;jiggle=2;fontFamily=Comic Sans MS;" parent="1" vertex="1">
          <mxGeometry x="10" y="-125" width="218.5" height="25" as="geometry" />
        </mxCell>
        <mxCell id="pgN2BodhG1lexUuljltz-12" value="参与开源" style="rounded=0;whiteSpace=wrap;html=1;sketch=1;curveFitting=1;jiggle=2;fontFamily=Comic Sans MS;" parent="1" vertex="1">
          <mxGeometry x="509" y="-125" width="164" height="25" as="geometry" />
        </mxCell>
        <mxCell id="pgN2BodhG1lexUuljltz-16" value="上层应用" style="text;html=1;align=center;verticalAlign=middle;resizable=0;points=[];autosize=1;strokeColor=none;fillColor=none;fontFamily=Architects Daughter;fontSource=https%3A%2F%2Ffonts.googleapis.com%2Fcss%3Ffamily%3DArchitects%2BDaughter;" parent="1" vertex="1">
          <mxGeometry x="-338" y="131" width="66" height="26" as="geometry" />
        </mxCell>
        <mxCell id="pgN2BodhG1lexUuljltz-17" value="能力平台" style="text;html=1;align=center;verticalAlign=middle;resizable=0;points=[];autosize=1;strokeColor=none;fillColor=none;fontFamily=Architects Daughter;fontSource=https%3A%2F%2Ffonts.googleapis.com%2Fcss%3Ffamily%3DArchitects%2BDaughter;" parent="1" vertex="1">
          <mxGeometry x="-338" y="265" width="66" height="26" as="geometry" />
        </mxCell>
        <mxCell id="pgN2BodhG1lexUuljltz-18" value="基础底座" style="text;html=1;align=center;verticalAlign=middle;resizable=0;points=[];autosize=1;strokeColor=none;fillColor=none;fontFamily=Architects Daughter;fontSource=https%3A%2F%2Ffonts.googleapis.com%2Fcss%3Ffamily%3DArchitects%2BDaughter;" parent="1" vertex="1">
          <mxGeometry x="-338" y="387" width="66" height="26" as="geometry" />
        </mxCell>
        <mxCell id="pgN2BodhG1lexUuljltz-19" value="消息中心" style="rounded=0;whiteSpace=wrap;html=1;sketch=1;hachureGap=4;jiggle=2;curveFitting=1;fontFamily=Architects Daughter;fontSource=https%3A%2F%2Ffonts.googleapis.com%2Fcss%3Ffamily%3DArchitects%2BDaughter;" parent="1" vertex="1">
          <mxGeometry x="121" y="211" width="115" height="21" as="geometry" />
        </mxCell>
        <mxCell id="pgN2BodhG1lexUuljltz-20" value="API 网关" style="rounded=0;whiteSpace=wrap;html=1;sketch=1;hachureGap=4;jiggle=2;curveFitting=1;fontFamily=Architects Daughter;fontSource=https%3A%2F%2Ffonts.googleapis.com%2Fcss%3Ffamily%3DArchitects%2BDaughter;" parent="1" vertex="1">
          <mxGeometry x="254" y="211" width="121" height="21" as="geometry" />
        </mxCell>
        <mxCell id="pgN2BodhG1lexUuljltz-21" value="AIGC" style="rounded=0;whiteSpace=wrap;html=1;sketch=1;hachureGap=4;jiggle=2;curveFitting=1;fontFamily=Architects Daughter;fontSource=https%3A%2F%2Ffonts.googleapis.com%2Fcss%3Ffamily%3DArchitects%2BDaughter;" parent="1" vertex="1">
          <mxGeometry x="121" y="257" width="116" height="21" as="geometry" />
        </mxCell>
        <mxCell id="pgN2BodhG1lexUuljltz-24" value="kubernetes" style="rounded=0;whiteSpace=wrap;html=1;sketch=1;curveFitting=1;jiggle=2;fontFamily=Comic Sans MS;" parent="1" vertex="1">
          <mxGeometry x="-136" y="341" width="517" height="24" as="geometry" />
        </mxCell>
        <mxCell id="pgN2BodhG1lexUuljltz-26" value="华为云" style="rounded=0;whiteSpace=wrap;html=1;sketch=1;hachureGap=4;jiggle=2;curveFitting=1;fontFamily=Architects Daughter;fontSource=https%3A%2F%2Ffonts.googleapis.com%2Fcss%3Ffamily%3DArchitects%2BDaughter;" parent="1" vertex="1">
          <mxGeometry x="-104" y="394.5" width="71" height="21" as="geometry" />
        </mxCell>
        <mxCell id="pgN2BodhG1lexUuljltz-28" value="天翼云" style="rounded=0;whiteSpace=wrap;html=1;sketch=1;hachureGap=4;jiggle=2;curveFitting=1;fontFamily=Architects Daughter;fontSource=https%3A%2F%2Ffonts.googleapis.com%2Fcss%3Ffamily%3DArchitects%2BDaughter;" parent="1" vertex="1">
          <mxGeometry x="107" y="394.5" width="71" height="21" as="geometry" />
        </mxCell>
        <mxCell id="pgN2BodhG1lexUuljltz-31" value="AWS" style="rounded=0;whiteSpace=wrap;html=1;sketch=1;hachureGap=4;jiggle=2;curveFitting=1;fontFamily=Architects Daughter;fontSource=https%3A%2F%2Ffonts.googleapis.com%2Fcss%3Ffamily%3DArchitects%2BDaughter;" parent="1" vertex="1">
          <mxGeometry x="-1" y="394.5" width="71" height="21" as="geometry" />
        </mxCell>
        <mxCell id="pgN2BodhG1lexUuljltz-32" value="昇腾集群" style="rounded=0;whiteSpace=wrap;html=1;sketch=1;hachureGap=4;jiggle=2;curveFitting=1;fontFamily=Architects Daughter;fontSource=https%3A%2F%2Ffonts.googleapis.com%2Fcss%3Ffamily%3DArchitects%2BDaughter;" parent="1" vertex="1">
          <mxGeometry x="541" y="394.5" width="71" height="21" as="geometry" />
        </mxCell>
        <mxCell id="pgN2BodhG1lexUuljltz-33" value="鲲鹏集群" style="rounded=0;whiteSpace=wrap;html=1;sketch=1;hachureGap=4;jiggle=2;curveFitting=1;fontFamily=Architects Daughter;fontSource=https%3A%2F%2Ffonts.googleapis.com%2Fcss%3Ffamily%3DArchitects%2BDaughter;" parent="1" vertex="1">
          <mxGeometry x="327" y="394.5" width="71" height="21" as="geometry" />
        </mxCell>
        <mxCell id="pgN2BodhG1lexUuljltz-34" value="x86集群" style="rounded=0;whiteSpace=wrap;html=1;sketch=1;hachureGap=4;jiggle=2;curveFitting=1;fontFamily=Architects Daughter;fontSource=https%3A%2F%2Ffonts.googleapis.com%2Fcss%3Ffamily%3DArchitects%2BDaughter;" parent="1" vertex="1">
          <mxGeometry x="435" y="394.5" width="71" height="21" as="geometry" />
        </mxCell>
        <mxCell id="pgN2BodhG1lexUuljltz-36" value="数据中台" style="rounded=0;whiteSpace=wrap;html=1;sketch=1;hachureGap=4;jiggle=2;curveFitting=1;fontFamily=Architects Daughter;fontSource=https%3A%2F%2Ffonts.googleapis.com%2Fcss%3Ffamily%3DArchitects%2BDaughter;" parent="1" vertex="1">
          <mxGeometry x="254" y="257" width="123" height="21" as="geometry" />
        </mxCell>
        <mxCell id="pgN2BodhG1lexUuljltz-37" value="签名中心" style="rounded=0;whiteSpace=wrap;html=1;sketch=1;hachureGap=4;jiggle=2;curveFitting=1;fontFamily=Architects Daughter;fontSource=https%3A%2F%2Ffonts.googleapis.com%2Fcss%3Ffamily%3DArchitects%2BDaughter;" parent="1" vertex="1">
          <mxGeometry x="403" y="257" width="120" height="21" as="geometry" />
        </mxCell>
        <mxCell id="pgN2BodhG1lexUuljltz-38" value="证书中心" style="rounded=0;whiteSpace=wrap;html=1;sketch=1;hachureGap=4;jiggle=2;curveFitting=1;fontFamily=Architects Daughter;fontSource=https%3A%2F%2Ffonts.googleapis.com%2Fcss%3Ffamily%3DArchitects%2BDaughter;" parent="1" vertex="1">
          <mxGeometry x="536" y="257" width="123" height="21" as="geometry" />
        </mxCell>
        <mxCell id="pgN2BodhG1lexUuljltz-39" value="账号中心" style="rounded=0;whiteSpace=wrap;html=1;sketch=1;hachureGap=4;jiggle=2;curveFitting=1;fontFamily=Architects Daughter;fontSource=https%3A%2F%2Ffonts.googleapis.com%2Fcss%3Ffamily%3DArchitects%2BDaughter;" parent="1" vertex="1">
          <mxGeometry x="402" y="211" width="115" height="21" as="geometry" />
        </mxCell>
        <mxCell id="pgN2BodhG1lexUuljltz-40" value="账号中心" style="rounded=0;whiteSpace=wrap;html=1;sketch=1;hachureGap=4;jiggle=2;curveFitting=1;fontFamily=Architects Daughter;fontSource=https%3A%2F%2Ffonts.googleapis.com%2Fcss%3Ffamily%3DArchitects%2BDaughter;" parent="1" vertex="1">
          <mxGeometry x="-8" y="211" width="107" height="21" as="geometry" />
        </mxCell>
        <mxCell id="pgN2BodhG1lexUuljltz-46" value="昇思大模型平台" style="rounded=0;whiteSpace=wrap;html=1;sketch=1;curveFitting=1;jiggle=2;fontFamily=Comic Sans MS;" parent="1" vertex="1">
          <mxGeometry x="-133.5" y="73" width="96.5" height="25" as="geometry" />
        </mxCell>
        <mxCell id="pgN2BodhG1lexUuljltz-47" value="魔乐社区" style="rounded=0;whiteSpace=wrap;html=1;sketch=1;curveFitting=1;jiggle=2;fontFamily=Comic Sans MS;" parent="1" vertex="1">
          <mxGeometry x="-29" y="73" width="58" height="25" as="geometry" />
        </mxCell>
        <mxCell id="pgN2BodhG1lexUuljltz-49" value="邮件列表" style="rounded=0;whiteSpace=wrap;html=1;sketch=1;curveFitting=1;jiggle=2;fontFamily=Comic Sans MS;" parent="1" vertex="1">
          <mxGeometry x="40" y="73" width="56" height="25" as="geometry" />
        </mxCell>
        <mxCell id="pgN2BodhG1lexUuljltz-51" value="开发/维护" style="rounded=0;whiteSpace=wrap;html=1;sketch=1;curveFitting=1;jiggle=2;fontFamily=Comic Sans MS;" parent="1" vertex="1">
          <mxGeometry x="-244" y="106" width="70" height="25" as="geometry" />
        </mxCell>
        <mxCell id="pgN2BodhG1lexUuljltz-58" value="论坛" style="rounded=0;whiteSpace=wrap;html=1;sketch=1;curveFitting=1;jiggle=2;fontFamily=Comic Sans MS;fillColor=#dae8fc;strokeColor=#6c8ebf;" parent="1" vertex="1">
          <mxGeometry x="105.5" y="73" width="35.5" height="25" as="geometry" />
        </mxCell>
        <mxCell id="pgN2BodhG1lexUuljltz-59" value="组织运作" style="rounded=0;whiteSpace=wrap;html=1;sketch=1;curveFitting=1;jiggle=2;fontFamily=Comic Sans MS;" parent="1" vertex="1">
          <mxGeometry x="-244" y="139" width="70" height="25" as="geometry" />
        </mxCell>
        <mxCell id="pgN2BodhG1lexUuljltz-61" value="CRM" style="rounded=0;whiteSpace=wrap;html=1;sketch=1;curveFitting=1;jiggle=2;fontFamily=Comic Sans MS;" parent="1" vertex="1">
          <mxGeometry x="-246" y="73" width="70" height="25" as="geometry" />
        </mxCell>
        <mxCell id="pgN2BodhG1lexUuljltz-62" value="代码托管" style="rounded=0;whiteSpace=wrap;html=1;sketch=1;curveFitting=1;jiggle=2;fontFamily=Comic Sans MS;" parent="1" vertex="1">
          <mxGeometry x="-52" y="106" width="70" height="25" as="geometry" />
        </mxCell>
        <mxCell id="pgN2BodhG1lexUuljltz-63" value="数据看板" style="rounded=0;whiteSpace=wrap;html=1;sketch=1;curveFitting=1;jiggle=2;fontFamily=Comic Sans MS;" parent="1" vertex="1">
          <mxGeometry x="349" y="73" width="70" height="25" as="geometry" />
        </mxCell>
        <mxCell id="pgN2BodhG1lexUuljltz-64" value="成员管理" style="rounded=0;whiteSpace=wrap;html=1;sketch=1;curveFitting=1;jiggle=2;fontFamily=Comic Sans MS;" parent="1" vertex="1">
          <mxGeometry x="-133.5" y="139" width="70" height="25" as="geometry" />
        </mxCell>
        <mxCell id="pgN2BodhG1lexUuljltz-65" value="组织管理" style="rounded=0;whiteSpace=wrap;html=1;sketch=1;curveFitting=1;jiggle=2;fontFamily=Comic Sans MS;" parent="1" vertex="1">
          <mxGeometry x="-50" y="139" width="70" height="25" as="geometry" />
        </mxCell>
        <mxCell id="pgN2BodhG1lexUuljltz-66" value="CLA" style="rounded=0;whiteSpace=wrap;html=1;sketch=1;curveFitting=1;jiggle=2;fontFamily=Comic Sans MS;" parent="1" vertex="1">
          <mxGeometry x="-133.5" y="106" width="70" height="25" as="geometry" />
        </mxCell>
        <mxCell id="pgN2BodhG1lexUuljltz-67" value="缺陷管理" style="rounded=0;whiteSpace=wrap;html=1;sketch=1;curveFitting=1;jiggle=2;fontFamily=Comic Sans MS;" parent="1" vertex="1">
          <mxGeometry x="115" y="106" width="70" height="25" as="geometry" />
        </mxCell>
        <mxCell id="pgN2BodhG1lexUuljltz-68" value="漏洞管理" style="rounded=0;whiteSpace=wrap;html=1;sketch=1;curveFitting=1;jiggle=2;fontFamily=Comic Sans MS;" parent="1" vertex="1">
          <mxGeometry x="199" y="106" width="70" height="25" as="geometry" />
        </mxCell>
        <mxCell id="pgN2BodhG1lexUuljltz-69" value="博客" style="rounded=0;whiteSpace=wrap;html=1;sketch=1;curveFitting=1;jiggle=2;fontFamily=Comic Sans MS;" parent="1" vertex="1">
          <mxGeometry x="199" y="73" width="36" height="25" as="geometry" />
        </mxCell>
        <mxCell id="pgN2BodhG1lexUuljltz-72" value="文档" style="rounded=0;whiteSpace=wrap;html=1;sketch=1;curveFitting=1;jiggle=2;fontFamily=Comic Sans MS;" parent="1" vertex="1">
          <mxGeometry x="249" y="73" width="36" height="25" as="geometry" />
        </mxCell>
        <mxCell id="pgN2BodhG1lexUuljltz-74" value="兼容性" style="rounded=0;whiteSpace=wrap;html=1;sketch=1;curveFitting=1;jiggle=2;fontFamily=Comic Sans MS;" parent="1" vertex="1">
          <mxGeometry x="297" y="73" width="43" height="25" as="geometry" />
        </mxCell>
        <mxCell id="pgN2BodhG1lexUuljltz-75" value="软件商店" style="rounded=0;whiteSpace=wrap;html=1;sketch=1;curveFitting=1;jiggle=2;fontFamily=Comic Sans MS;" parent="1" vertex="1">
          <mxGeometry x="283" y="106" width="70" height="25" as="geometry" />
        </mxCell>
        <mxCell id="pgN2BodhG1lexUuljltz-76" value="门禁系统" style="rounded=0;whiteSpace=wrap;html=1;sketch=1;curveFitting=1;jiggle=2;fontFamily=Comic Sans MS;" parent="1" vertex="1">
          <mxGeometry x="26" y="106" width="70" height="25" as="geometry" />
        </mxCell>
        <mxCell id="E2NUBiW29PT-hDMwpMA1-2" value="广告系统" style="rounded=0;whiteSpace=wrap;html=1;sketch=1;curveFitting=1;jiggle=2;fontFamily=Comic Sans MS;fillColor=#f8cecc;strokeColor=#b85450;" vertex="1" parent="1">
          <mxGeometry x="29" y="139" width="65" height="25" as="geometry" />
        </mxCell>
        <mxCell id="E2NUBiW29PT-hDMwpMA1-3" value="..." style="rounded=0;whiteSpace=wrap;html=1;sketch=1;hachureGap=4;jiggle=2;curveFitting=1;fontFamily=Architects Daughter;fontSource=https%3A%2F%2Ffonts.googleapis.com%2Fcss%3Ffamily%3DArchitects%2BDaughter;" vertex="1" parent="1">
          <mxGeometry x="605" y="11" width="75" height="21" as="geometry" />
        </mxCell>
        <mxCell id="E2NUBiW29PT-hDMwpMA1-5" value="" style="endArrow=classic;html=1;rounded=0;sketch=1;hachureGap=4;jiggle=2;curveFitting=1;fontFamily=Architects Daughter;fontSource=https%3A%2F%2Ffonts.googleapis.com%2Fcss%3Ffamily%3DArchitects%2BDaughter;" edge="1" parent="1">
          <mxGeometry width="50" height="50" relative="1" as="geometry">
            <mxPoint x="-330" y="189" as="sourcePoint" />
            <mxPoint x="859" y="187" as="targetPoint" />
          </mxGeometry>
        </mxCell>
        <mxCell id="E2NUBiW29PT-hDMwpMA1-7" value="持续优化" style="rounded=0;whiteSpace=wrap;html=1;sketch=1;curveFitting=1;jiggle=2;fontFamily=Comic Sans MS;fillColor=#dae8fc;strokeColor=#6c8ebf;" vertex="1" parent="1">
          <mxGeometry x="761" y="454" width="75" height="25" as="geometry" />
        </mxCell>
        <mxCell id="E2NUBiW29PT-hDMwpMA1-9" value="搜索" style="rounded=0;whiteSpace=wrap;html=1;sketch=1;curveFitting=1;jiggle=2;fontFamily=Comic Sans MS;fillColor=#dae8fc;strokeColor=#6c8ebf;" vertex="1" parent="1">
          <mxGeometry x="152" y="73" width="36" height="25" as="geometry" />
        </mxCell>
        <mxCell id="E2NUBiW29PT-hDMwpMA1-10" value="CVE" style="rounded=0;whiteSpace=wrap;html=1;sketch=1;curveFitting=1;jiggle=2;fontFamily=Comic Sans MS;fillColor=#dae8fc;strokeColor=#6c8ebf;" vertex="1" parent="1">
          <mxGeometry x="367" y="106" width="70" height="25" as="geometry" />
        </mxCell>
      </root>
    </mxGraphModel>
  </diagram>
  <diagram id="G0_mMGbiInow4497-o7Y" name="第 2 页">
    <mxGraphModel dx="873" dy="581" grid="1" gridSize="10" guides="1" tooltips="1" connect="1" arrows="1" fold="1" page="1" pageScale="1" pageWidth="827" pageHeight="1169" math="0" shadow="0">
      <root>
        <mxCell id="0" />
        <mxCell id="1" parent="0" />
        <mxCell id="zvL3UJ5DEkBXC9KE-6RC-26" value="&lt;div&gt;&lt;br&gt;&lt;/div&gt;&lt;div&gt;&lt;br&gt;&lt;/div&gt;&lt;div&gt;&lt;br&gt;&lt;/div&gt;&lt;div style=&quot;&quot;&gt;&lt;span style=&quot;background-color: initial;&quot;&gt;软件包开发与维护&lt;/span&gt;&lt;/div&gt;" style="rounded=1;whiteSpace=wrap;html=1;sketch=1;hachureGap=4;jiggle=2;curveFitting=1;fontFamily=Architects Daughter;fontSource=https%3A%2F%2Ffonts.googleapis.com%2Fcss%3Ffamily%3DArchitects%2BDaughter;align=left;" vertex="1" parent="1">
          <mxGeometry x="220" y="90" width="920" height="60" as="geometry" />
        </mxCell>
        <mxCell id="zvL3UJ5DEkBXC9KE-6RC-1" value="fedora" style="rounded=1;whiteSpace=wrap;html=1;sketch=1;hachureGap=4;jiggle=2;curveFitting=1;fontFamily=Architects Daughter;fontSource=https%3A%2F%2Ffonts.googleapis.com%2Fcss%3Ffamily%3DArchitects%2BDaughter;" vertex="1" parent="1">
          <mxGeometry x="220" y="180" width="70" height="40" as="geometry" />
        </mxCell>
        <mxCell id="zvL3UJ5DEkBXC9KE-6RC-2" value="文档" style="rounded=1;whiteSpace=wrap;html=1;sketch=1;hachureGap=4;jiggle=2;curveFitting=1;fontFamily=Architects Daughter;fontSource=https%3A%2F%2Ffonts.googleapis.com%2Fcss%3Ffamily%3DArchitects%2BDaughter;" vertex="1" parent="1">
          <mxGeometry x="350" y="180" width="80" height="40" as="geometry" />
        </mxCell>
        <mxCell id="zvL3UJ5DEkBXC9KE-6RC-3" value="了解" style="rounded=1;whiteSpace=wrap;html=1;sketch=1;hachureGap=4;jiggle=2;curveFitting=1;fontFamily=Architects Daughter;fontSource=https%3A%2F%2Ffonts.googleapis.com%2Fcss%3Ffamily%3DArchitects%2BDaughter;" vertex="1" parent="1">
          <mxGeometry x="350" y="100" width="80" height="20" as="geometry" />
        </mxCell>
        <mxCell id="zvL3UJ5DEkBXC9KE-6RC-4" value="代码提交" style="rounded=1;whiteSpace=wrap;html=1;sketch=1;hachureGap=4;jiggle=2;curveFitting=1;fontFamily=Architects Daughter;fontSource=https%3A%2F%2Ffonts.googleapis.com%2Fcss%3Ffamily%3DArchitects%2BDaughter;" vertex="1" parent="1">
          <mxGeometry x="570" y="100" width="70" height="20" as="geometry" />
        </mxCell>
        <mxCell id="zvL3UJ5DEkBXC9KE-6RC-5" value="代码评审" style="rounded=1;whiteSpace=wrap;html=1;sketch=1;hachureGap=4;jiggle=2;curveFitting=1;fontFamily=Architects Daughter;fontSource=https%3A%2F%2Ffonts.googleapis.com%2Fcss%3Ffamily%3DArchitects%2BDaughter;" vertex="1" parent="1">
          <mxGeometry x="650" y="100" width="70" height="20" as="geometry" />
        </mxCell>
        <mxCell id="zvL3UJ5DEkBXC9KE-6RC-6" value="文档" style="rounded=1;whiteSpace=wrap;html=1;sketch=1;hachureGap=4;jiggle=2;curveFitting=1;fontFamily=Architects Daughter;fontSource=https%3A%2F%2Ffonts.googleapis.com%2Fcss%3Ffamily%3DArchitects%2BDaughter;" vertex="1" parent="1">
          <mxGeometry x="350" y="260" width="80" height="40" as="geometry" />
        </mxCell>
        <mxCell id="zvL3UJ5DEkBXC9KE-6RC-7" value="openEuler" style="rounded=1;whiteSpace=wrap;html=1;sketch=1;hachureGap=4;jiggle=2;curveFitting=1;fontFamily=Architects Daughter;fontSource=https%3A%2F%2Ffonts.googleapis.com%2Fcss%3Ffamily%3DArchitects%2BDaughter;" vertex="1" parent="1">
          <mxGeometry x="220" y="260" width="70" height="40" as="geometry" />
        </mxCell>
        <mxCell id="zvL3UJ5DEkBXC9KE-6RC-8" value="gitee.com/src-openeuler" style="rounded=1;whiteSpace=wrap;html=1;sketch=1;hachureGap=4;jiggle=2;curveFitting=1;fontFamily=Architects Daughter;fontSource=https%3A%2F%2Ffonts.googleapis.com%2Fcss%3Ffamily%3DArchitects%2BDaughter;" vertex="1" parent="1">
          <mxGeometry x="570" y="260" width="160" height="40" as="geometry" />
        </mxCell>
        <mxCell id="zvL3UJ5DEkBXC9KE-6RC-10" value="src.fedoraproject.com" style="rounded=1;whiteSpace=wrap;html=1;sketch=1;hachureGap=4;jiggle=2;curveFitting=1;fontFamily=Architects Daughter;fontSource=https%3A%2F%2Ffonts.googleapis.com%2Fcss%3Ffamily%3DArchitects%2BDaughter;" vertex="1" parent="1">
          <mxGeometry x="570" y="180" width="160" height="40" as="geometry" />
        </mxCell>
        <mxCell id="zvL3UJ5DEkBXC9KE-6RC-13" value="贡献者协议" style="rounded=1;whiteSpace=wrap;html=1;sketch=1;hachureGap=4;jiggle=2;curveFitting=1;fontFamily=Architects Daughter;fontSource=https%3A%2F%2Ffonts.googleapis.com%2Fcss%3Ffamily%3DArchitects%2BDaughter;" vertex="1" parent="1">
          <mxGeometry x="460" y="100" width="80" height="20" as="geometry" />
        </mxCell>
        <mxCell id="zvL3UJ5DEkBXC9KE-6RC-14" value="agreement" style="rounded=1;whiteSpace=wrap;html=1;sketch=1;hachureGap=4;jiggle=2;curveFitting=1;fontFamily=Architects Daughter;fontSource=https%3A%2F%2Ffonts.googleapis.com%2Fcss%3Ffamily%3DArchitects%2BDaughter;" vertex="1" parent="1">
          <mxGeometry x="460" y="180" width="80" height="40" as="geometry" />
        </mxCell>
        <mxCell id="zvL3UJ5DEkBXC9KE-6RC-15" value="CLA" style="rounded=1;whiteSpace=wrap;html=1;sketch=1;hachureGap=4;jiggle=2;curveFitting=1;fontFamily=Architects Daughter;fontSource=https%3A%2F%2Ffonts.googleapis.com%2Fcss%3Ffamily%3DArchitects%2BDaughter;" vertex="1" parent="1">
          <mxGeometry x="460" y="260" width="80" height="40" as="geometry" />
        </mxCell>
        <mxCell id="zvL3UJ5DEkBXC9KE-6RC-16" value="CI" style="rounded=1;whiteSpace=wrap;html=1;sketch=1;hachureGap=4;jiggle=2;curveFitting=1;fontFamily=Architects Daughter;fontSource=https%3A%2F%2Ffonts.googleapis.com%2Fcss%3Ffamily%3DArchitects%2BDaughter;" vertex="1" parent="1">
          <mxGeometry x="757" y="100" width="70" height="20" as="geometry" />
        </mxCell>
        <UserObject label="jenkins" link="https://github.com/fedora-ci" linkTarget="_blank" id="zvL3UJ5DEkBXC9KE-6RC-17">
          <mxCell style="rounded=1;whiteSpace=wrap;html=1;sketch=1;hachureGap=4;jiggle=2;curveFitting=1;fontFamily=Architects Daughter;fontSource=https%3A%2F%2Ffonts.googleapis.com%2Fcss%3Ffamily%3DArchitects%2BDaughter;" vertex="1" parent="1">
            <mxGeometry x="757" y="180" width="73" height="40" as="geometry" />
          </mxCell>
        </UserObject>
        <mxCell id="zvL3UJ5DEkBXC9KE-6RC-18" value="jenkins" style="rounded=1;whiteSpace=wrap;html=1;sketch=1;hachureGap=4;jiggle=2;curveFitting=1;fontFamily=Architects Daughter;fontSource=https%3A%2F%2Ffonts.googleapis.com%2Fcss%3Ffamily%3DArchitects%2BDaughter;" vertex="1" parent="1">
          <mxGeometry x="757" y="260" width="73" height="40" as="geometry" />
        </mxCell>
        <mxCell id="zvL3UJ5DEkBXC9KE-6RC-19" value="build" style="rounded=1;whiteSpace=wrap;html=1;sketch=1;hachureGap=4;jiggle=2;curveFitting=1;fontFamily=Architects Daughter;fontSource=https%3A%2F%2Ffonts.googleapis.com%2Fcss%3Ffamily%3DArchitects%2BDaughter;" vertex="1" parent="1">
          <mxGeometry x="860" y="100" width="70" height="20" as="geometry" />
        </mxCell>
        <UserObject label="koji" linkTarget="_blank" id="zvL3UJ5DEkBXC9KE-6RC-20">
          <mxCell style="rounded=1;whiteSpace=wrap;html=1;sketch=1;hachureGap=4;jiggle=2;curveFitting=1;fontFamily=Architects Daughter;fontSource=https%3A%2F%2Ffonts.googleapis.com%2Fcss%3Ffamily%3DArchitects%2BDaughter;" vertex="1" parent="1">
            <mxGeometry x="860" y="180" width="73" height="40" as="geometry" />
          </mxCell>
        </UserObject>
        <mxCell id="zvL3UJ5DEkBXC9KE-6RC-21" value="eulermaker" style="rounded=1;whiteSpace=wrap;html=1;sketch=1;hachureGap=4;jiggle=2;curveFitting=1;fontFamily=Architects Daughter;fontSource=https%3A%2F%2Ffonts.googleapis.com%2Fcss%3Ffamily%3DArchitects%2BDaughter;" vertex="1" parent="1">
          <mxGeometry x="857" y="260" width="73" height="40" as="geometry" />
        </mxCell>
        <mxCell id="zvL3UJ5DEkBXC9KE-6RC-22" value="release" style="rounded=1;whiteSpace=wrap;html=1;sketch=1;hachureGap=4;jiggle=2;curveFitting=1;fontFamily=Architects Daughter;fontSource=https%3A%2F%2Ffonts.googleapis.com%2Fcss%3Ffamily%3DArchitects%2BDaughter;" vertex="1" parent="1">
          <mxGeometry x="960" y="100" width="70" height="20" as="geometry" />
        </mxCell>
        <UserObject label="bodhi&lt;div&gt;pungi&lt;/div&gt;&lt;div&gt;&lt;div&gt;sigul&lt;/div&gt;&lt;div&gt;koschi&lt;/div&gt;&lt;/div&gt;" linkTarget="_blank" id="zvL3UJ5DEkBXC9KE-6RC-23">
          <mxCell style="rounded=1;whiteSpace=wrap;html=1;sketch=1;hachureGap=4;jiggle=2;curveFitting=1;fontFamily=Architects Daughter;fontSource=https%3A%2F%2Ffonts.googleapis.com%2Fcss%3Ffamily%3DArchitects%2BDaughter;" vertex="1" parent="1">
            <mxGeometry x="960" y="165" width="73" height="70" as="geometry" />
          </mxCell>
        </UserObject>
        <mxCell id="zvL3UJ5DEkBXC9KE-6RC-24" value="&lt;div&gt;signatrust&lt;/div&gt;" style="rounded=1;whiteSpace=wrap;html=1;sketch=1;hachureGap=4;jiggle=2;curveFitting=1;fontFamily=Architects Daughter;fontSource=https%3A%2F%2Ffonts.googleapis.com%2Fcss%3Ffamily%3DArchitects%2BDaughter;" vertex="1" parent="1">
          <mxGeometry x="957" y="260" width="73" height="40" as="geometry" />
        </mxCell>
        <mxCell id="zvL3UJ5DEkBXC9KE-6RC-29" value="问题反馈" style="rounded=1;whiteSpace=wrap;html=1;sketch=1;hachureGap=4;jiggle=2;curveFitting=1;fontFamily=Architects Daughter;fontSource=https%3A%2F%2Ffonts.googleapis.com%2Fcss%3Ffamily%3DArchitects%2BDaughter;" vertex="1" parent="1">
          <mxGeometry x="1060" y="100" width="70" height="20" as="geometry" />
        </mxCell>
        <UserObject label="bugzilla" linkTarget="_blank" id="zvL3UJ5DEkBXC9KE-6RC-30">
          <mxCell style="rounded=1;whiteSpace=wrap;html=1;sketch=1;hachureGap=4;jiggle=2;curveFitting=1;fontFamily=Architects Daughter;fontSource=https%3A%2F%2Ffonts.googleapis.com%2Fcss%3Ffamily%3DArchitects%2BDaughter;" vertex="1" parent="1">
            <mxGeometry x="1060" y="180" width="73" height="40" as="geometry" />
          </mxCell>
        </UserObject>
        <mxCell id="zvL3UJ5DEkBXC9KE-6RC-31" value="&lt;div&gt;issue&lt;/div&gt;&lt;div&gt;quickissue&lt;/div&gt;&lt;div&gt;CVE-manager&lt;/div&gt;" style="rounded=1;whiteSpace=wrap;html=1;sketch=1;hachureGap=4;jiggle=2;curveFitting=1;fontFamily=Architects Daughter;fontSource=https%3A%2F%2Ffonts.googleapis.com%2Fcss%3Ffamily%3DArchitects%2BDaughter;" vertex="1" parent="1">
          <mxGeometry x="1057" y="260" width="83" height="40" as="geometry" />
        </mxCell>
      </root>
    </mxGraphModel>
  </diagram>
</mxfile>
